<?xml version="1.0" encoding="UTF-8"?>
<svg xmlns="http://www.w3.org/2000/svg" xmlns:xlink="http://www.w3.org/1999/xlink" width="691.72pt" height="162.58pt" viewBox="0 0 691.72 162.58" version="1.1">
<defs>
<clipPath id="clip1">
  <path d="M 0 0 L 691.71875 0 L 691.71875 162.578125 L 0 162.578125 Z M 0 0 "/>
</clipPath>
<clipPath id="clip2">
  <path d="M 90 37 L 165 37 L 165 162.578125 L 90 162.578125 Z M 90 37 "/>
</clipPath>
<clipPath id="clip3">
  <path d="M 173 37 L 247 37 L 247 162.578125 L 173 162.578125 Z M 173 37 "/>
</clipPath>
<clipPath id="clip4">
  <path d="M 256 39 L 308 39 L 308 162.578125 L 256 162.578125 Z M 256 39 "/>
</clipPath>
<clipPath id="clip5">
  <path d="M 312 39 L 386 39 L 386 162.578125 L 312 162.578125 Z M 312 39 "/>
</clipPath>
<clipPath id="clip6">
  <path d="M 393 39 L 464 39 L 464 162.578125 L 393 162.578125 Z M 393 39 "/>
</clipPath>
<clipPath id="clip7">
  <path d="M 468 39 L 549 39 L 549 162.578125 L 468 162.578125 Z M 468 39 "/>
</clipPath>
<clipPath id="clip8">
  <path d="M 554 39 L 689 39 L 689 162.578125 L 554 162.578125 Z M 554 39 "/>
</clipPath>
<clipPath id="clip9">
  <path d="M 660 134 L 689 134 L 689 162.578125 L 660 162.578125 Z M 660 134 "/>
</clipPath>
</defs>
<g id="surface1">
<g clip-path="url(#clip1)" clip-rule="nonzero">
<path style=" stroke:none;fill-rule:nonzero;fill:rgb(13.699341%,12.199402%,12.5%);fill-opacity:1;" d="M 691.722656 0.00390625 L 0 0.00390625 L 0 24.589844 L 41.089844 24.589844 L 41.089844 162.417969 L 74.132813 162.417969 L 74.132813 24.589844 L 691.722656 24.589844 L 691.722656 0.00390625 "/>
</g>
<g clip-path="url(#clip2)" clip-rule="nonzero">
<path style=" stroke:none;fill-rule:nonzero;fill:rgb(13.699341%,12.199402%,12.5%);fill-opacity:1;" d="M 131.089844 136.949219 C 131.089844 139.167969 129.304688 140.941406 127.050781 140.941406 C 124.816406 140.941406 122.992188 139.167969 122.992188 136.949219 L 122.992188 64.816406 C 122.992188 62.597656 124.816406 60.804688 127.050781 60.804688 C 129.304688 60.804688 131.089844 62.597656 131.089844 64.816406 Z M 128.273438 37.34375 C 92.34375 37.34375 90.769531 68.585938 90.769531 68.585938 L 90.769531 134.480469 C 90.769531 134.480469 92.820313 162.417969 126.121094 162.417969 C 161.886719 162.417969 164.113281 133.84375 164.113281 133.84375 L 164.113281 66.933594 C 164.113281 66.933594 162.558594 37.34375 128.273438 37.34375 "/>
</g>
<g clip-path="url(#clip3)" clip-rule="nonzero">
<path style=" stroke:none;fill-rule:nonzero;fill:rgb(13.699341%,12.199402%,12.5%);fill-opacity:1;" d="M 213.597656 136.949219 C 213.597656 139.175781 211.785156 140.960938 209.535156 140.960938 C 207.285156 140.960938 205.476563 139.175781 205.476563 136.949219 L 205.476563 64.816406 C 205.476563 62.613281 207.285156 60.804688 209.535156 60.804688 C 211.785156 60.804688 213.597656 62.613281 213.597656 64.816406 Z M 210.757813 37.351563 C 174.808594 37.351563 173.238281 68.585938 173.238281 68.585938 L 173.238281 134.503906 C 173.238281 134.503906 175.304688 162.445313 208.585938 162.445313 C 244.378906 162.445313 246.597656 133.84375 246.597656 133.84375 L 246.597656 66.933594 C 246.597656 66.933594 245.027344 37.351563 210.757813 37.351563 "/>
</g>
<g clip-path="url(#clip4)" clip-rule="nonzero">
<path style=" stroke:none;fill-rule:nonzero;fill:rgb(13.699341%,12.199402%,12.5%);fill-opacity:1;" d="M 256.476563 39.117188 L 288.921875 39.117188 L 288.921875 136.679688 L 307.964844 136.679688 L 307.964844 162.417969 L 256.476563 162.417969 L 256.476563 39.117188 "/>
</g>
<g clip-path="url(#clip5)" clip-rule="nonzero">
<path style=" stroke:none;fill-rule:nonzero;fill:rgb(13.699341%,12.199402%,12.5%);fill-opacity:1;" d="M 354.992188 113.691406 L 354.992188 139.214844 C 354.992188 142.179688 352.605469 144.597656 349.640625 144.597656 C 346.652344 144.597656 344.25 142.179688 344.25 139.214844 L 344.25 65.53125 C 344.25 62.570313 346.652344 60.136719 349.640625 60.136719 C 352.605469 60.136719 354.992188 62.570313 354.992188 65.53125 L 354.992188 94.546875 L 385.628906 94.546875 L 385.628906 65.199219 C 385.628906 65.199219 381.570313 39.117188 348.546875 39.117188 C 314.421875 39.117188 312.773438 68.078125 312.773438 68.078125 L 312.773438 131.203125 C 312.773438 131.203125 312.773438 162.417969 348.546875 162.417969 C 384.785156 162.417969 385.628906 136.679688 385.628906 136.679688 L 385.628906 113.691406 L 354.992188 113.691406 "/>
</g>
<g clip-path="url(#clip6)" clip-rule="nonzero">
<path style=" stroke:none;fill-rule:nonzero;fill:rgb(13.699341%,12.199402%,12.5%);fill-opacity:1;" d="M 427.984375 88.019531 L 425.261719 88.019531 L 425.261719 61.433594 L 428.019531 61.453125 C 428.019531 61.453125 435.511719 61.753906 435.464844 74.242188 C 435.417969 87.972656 427.984375 88.019531 427.984375 88.019531 Z M 457.171875 103.53125 C 453.375 100.554688 447.5 99.90625 447.5 99.90625 C 447.5 99.90625 458.203125 98.738281 461.933594 89.117188 C 465.628906 79.570313 464.546875 56.558594 456.890625 48.101563 C 447.699219 37.9375 434.3125 39.117188 434.3125 39.117188 L 393.609375 39.117188 L 393.609375 162.417969 L 425.261719 162.417969 L 425.261719 107.367188 C 425.261719 107.367188 429.070313 107.039063 431.402344 108.5625 C 434.3125 110.464844 434.3125 113.800781 434.3125 113.800781 L 434.3125 162.417969 L 463.558594 162.417969 L 463.558594 114.761719 C 463.558594 114.761719 463.558594 108.5625 457.171875 103.53125 "/>
</g>
<g clip-path="url(#clip7)" clip-rule="nonzero">
<path style=" stroke:none;fill-rule:nonzero;fill:rgb(13.699341%,12.199402%,12.5%);fill-opacity:1;" d="M 504.507813 119.328125 L 508.71875 68.605469 L 513.003906 119.328125 Z M 516.648438 162.417969 L 548.789063 162.417969 L 531.277344 39.117188 L 485.632813 39.117188 L 468.148438 162.417969 L 500.902344 162.417969 L 502.742188 140.308594 L 514.789063 140.308594 L 516.648438 162.417969 "/>
</g>
<g clip-path="url(#clip8)" clip-rule="nonzero">
<path style=" stroke:none;fill-rule:nonzero;fill:rgb(13.699341%,12.199402%,12.5%);fill-opacity:1;" d="M 688.6875 39.117188 L 554.503906 39.117188 L 554.503906 162.417969 L 585.171875 162.417969 L 585.171875 111.84375 L 605.390625 111.84375 L 605.390625 87.972656 L 585.171875 87.972656 L 585.171875 65.433594 L 623.519531 65.433594 L 623.519531 162.417969 L 655.457031 162.417969 L 655.457031 65.433594 L 688.6875 65.433594 L 688.6875 39.117188 "/>
</g>
<g clip-path="url(#clip9)" clip-rule="nonzero">
<path style=" stroke:none;fill-rule:nonzero;fill:rgb(13.699341%,12.199402%,12.5%);fill-opacity:1;" d="M 673.988281 147.425781 L 673.671875 147.425781 L 673.671875 144.210938 L 674.015625 144.210938 C 674.015625 144.210938 674.90625 144.265625 674.90625 145.765625 C 674.90625 147.425781 673.988281 147.425781 673.988281 147.425781 Z M 678.105469 147.546875 C 678.542969 146.40625 678.410156 143.632813 677.5 142.597656 C 676.375 141.363281 674.757813 141.523438 674.757813 141.523438 L 669.855469 141.523438 L 669.855469 156.402344 L 673.671875 156.402344 L 673.671875 149.742188 C 673.671875 149.742188 674.128906 149.714844 674.402344 149.910156 C 674.757813 150.140625 674.757813 150.542969 674.757813 150.542969 L 674.757813 156.402344 L 678.3125 156.402344 L 678.3125 150.640625 C 678.3125 150.640625 678.3125 149.910156 677.539063 149.308594 C 677.0625 148.933594 676.359375 148.878906 676.359375 148.878906 C 676.359375 148.878906 677.648438 148.730469 678.105469 147.546875 Z M 674.265625 161.003906 C 667.464844 161.003906 661.976563 155.523438 661.976563 148.730469 C 661.976563 141.957031 667.464844 136.4375 674.265625 136.4375 C 681.035156 136.4375 686.542969 141.957031 686.542969 148.730469 C 686.542969 155.523438 681.035156 161.003906 674.265625 161.003906 Z M 674.265625 134.871094 C 666.589844 134.871094 660.394531 141.085938 660.394531 148.730469 C 660.394531 156.375 666.589844 162.578125 674.265625 162.578125 C 681.898438 162.578125 688.09375 156.375 688.09375 148.730469 C 688.09375 141.085938 681.898438 134.871094 674.265625 134.871094 "/>
</g>
</g>
</svg>
